<svg width="24" height="24" viewBox="0 0 24 24" fill="none" xmlns="http://www.w3.org/2000/svg"
     xmlns:xlink="http://www.w3.org/1999/xlink">
    <g id="logo">
        <path id="Ellipse 4"
              d="M27.0543 13.9395C25.6581 10.3381 22.9303 7.64185 19.6512 6.19482C16.119 4.63232 12.2835 4.65454 8.94171 5.9502C5.33905 7.34277 2.64276 10.0706 1.19586 13.3499C-0.366821 16.8821 -0.344482 20.7175 0.95105 24.0593C2.34381 27.6619 5.07159 30.3582 8.35071 31.8052C11.883 33.3677 15.7184 33.3455 19.0602 32.0498C22.6629 30.6572 25.3592 27.9294 26.8094 24.6519L14.001 19L27.0543 13.9395Z"
              fill="#D3F85A" fill-opacity="1.000000" fill-rule="evenodd"/>
        <circle id="Ellipse 5" cx="6.000977" cy="19.000000" r="2.000000" fill="#090F1D" fill-opacity="1.000000"/>
        <path id="Creativeart"
              d="M159.003 45.072C159.792 45.072 160.475 44.8587 161.051 44.432L161.051 39.408C158.192 40.1333 156.763 41.3387 156.763 43.024C156.763 43.664 156.955 44.1653 157.339 44.528C157.744 44.8907 158.299 45.072 159.003 45.072ZM164.155 47.216C163.302 47.216 162.619 47.0133 162.107 46.608C161.595 46.2027 161.275 45.6587 161.147 44.976C159.931 46.512 158.406 47.28 156.571 47.28C155.547 47.28 154.704 47.0347 154.043 46.544C153.403 46.0533 153.083 45.3173 153.083 44.336C153.083 41.6907 155.739 39.856 161.051 38.832L161.051 36.016C161.051 35.0773 160.827 34.384 160.379 33.936C159.931 33.488 159.152 33.264 158.043 33.264C156.486 33.264 155.088 33.6587 153.851 34.448L153.691 34.224C155.44 32.0053 157.744 30.896 160.603 30.896C162.182 30.896 163.334 31.2587 164.059 31.984C164.784 32.7093 165.147 33.68 165.147 34.896L165.147 43.6C165.147 44.5387 165.584 45.008 166.459 45.008C166.95 45.008 167.419 44.8373 167.867 44.496L167.931 44.592C167.078 46.3413 165.819 47.216 164.155 47.216ZM169.161 46.8L169.161 46.736C169.652 45.136 169.897 43.1733 169.897 40.848L169.897 37.136C169.897 35.3013 169.396 33.776 168.393 32.56L168.393 32.496L173.865 30.736L173.865 34.64L173.897 34.64C174.004 34.5333 174.271 34.2347 174.697 33.744C175.124 33.2533 175.455 32.8907 175.689 32.656C175.945 32.4213 176.276 32.1333 176.681 31.792C177.108 31.4507 177.535 31.216 177.961 31.088C178.388 30.9387 178.825 30.8747 179.273 30.896L178.985 35.472L178.825 35.472C178.505 35.1093 178.015 34.7893 177.353 34.512C176.713 34.2347 176.191 34.096 175.785 34.096C175.231 34.096 174.633 34.48 173.993 35.248L173.993 40.848C173.993 43.4507 174.239 45.4133 174.729 46.736L174.729 46.8L169.161 46.8ZM186.239 47.28C183.593 47.28 182.271 45.904 182.271 43.152L182.271 32.016L180.511 32.016L180.511 31.792L186.047 27.728L186.367 27.728L186.367 31.376L190.367 31.376L190.367 32.016L186.367 32.016L186.367 43.024C186.367 44.6667 187.124 45.488 188.639 45.488C188.98 45.488 189.311 45.4453 189.631 45.36C189.951 45.2747 190.185 45.2 190.335 45.136C190.484 45.0507 190.58 44.9867 190.623 44.944L190.719 45.04C189.759 46.5333 188.265 47.28 186.239 47.28Z"
              fill="#D3F85A" fill-opacity="1.000000" fill-rule="evenodd"/>
        <path id="Creativeart"
              d="M58.209 44.944C57.633 45.392 56.5236 45.8933 54.881 46.448C53.2596 47.0027 51.4783 47.28 49.537 47.28C45.8463 47.28 42.817 46.1387 40.449 43.856C38.1023 41.5733 36.929 38.6933 36.929 35.216C36.929 31.7387 38.1663 28.816 40.641 26.448C43.1156 24.08 46.2303 22.896 49.985 22.896C52.6303 22.896 55.329 23.3547 58.081 24.272L58.721 29.808L58.433 29.904C56.7476 27.5573 55.2863 25.9147 54.049 24.976C52.8116 24.0373 51.361 23.568 49.697 23.568C48.3316 23.568 47.137 23.856 46.113 24.432C45.1103 24.9867 44.3103 25.7973 43.713 26.864C43.1156 27.9307 42.6783 29.1573 42.401 30.544C42.1236 31.9093 41.985 33.4667 41.985 35.216C41.985 38.736 42.625 41.52 43.905 43.568C45.185 45.5947 47.073 46.608 49.569 46.608C51.5316 46.608 53.1743 45.968 54.497 44.688C55.8196 43.408 57.1743 41.4347 58.561 38.768L58.849 38.864L58.209 44.944ZM61.7862 46.8L61.7862 46.736C62.2769 45.136 62.5222 43.1733 62.5222 40.848L62.5222 37.136C62.5222 35.3013 62.0209 33.776 61.0182 32.56L61.0182 32.496L66.4902 30.736L66.4902 34.64L66.5222 34.64C66.6289 34.5333 66.8956 34.2347 67.3222 33.744C67.7489 33.2533 68.0796 32.8907 68.3142 32.656C68.5702 32.4213 68.9009 32.1333 69.3062 31.792C69.7329 31.4507 70.1596 31.216 70.5862 31.088C71.0129 30.9387 71.4502 30.8747 71.8982 30.896L71.6102 35.472L71.4502 35.472C71.1302 35.1093 70.6396 34.7893 69.9782 34.512C69.3382 34.2347 68.8156 34.096 68.4102 34.096C67.8556 34.096 67.2582 34.48 66.6182 35.248L66.6182 40.848C66.6182 43.4507 66.8636 45.4133 67.3542 46.736L67.3542 46.8L61.7862 46.8ZM80.507 31.472C79.5043 31.472 78.715 31.9733 78.139 32.976C77.5843 33.9787 77.2643 35.2587 77.179 36.816L83.067 36.688L83.067 35.952C83.067 32.9653 82.2136 31.472 80.507 31.472ZM87.131 42.384C86.683 43.856 85.883 45.04 84.731 45.936C83.6003 46.832 82.1923 47.28 80.507 47.28C78.2883 47.28 76.4856 46.5333 75.099 45.04C73.7336 43.5253 73.051 41.6373 73.051 39.376C73.051 36.9013 73.8083 34.8747 75.323 33.296C76.8376 31.696 78.619 30.896 80.667 30.896C82.6083 30.896 84.1763 31.5787 85.371 32.944C86.587 34.288 87.1736 35.7707 87.131 37.392L77.179 37.36L77.179 37.456C77.179 39.76 77.659 41.456 78.619 42.544C79.6003 43.6107 80.9336 44.144 82.619 44.144C84.4536 44.144 85.8936 43.5253 86.939 42.288L87.131 42.384ZM94.6905 45.072C95.4798 45.072 96.1625 44.8587 96.7385 44.432L96.7385 39.408C93.8798 40.1333 92.4505 41.3387 92.4505 43.024C92.4505 43.664 92.6425 44.1653 93.0265 44.528C93.4318 44.8907 93.9865 45.072 94.6905 45.072ZM99.8425 47.216C98.9891 47.216 98.3065 47.0133 97.7945 46.608C97.2825 46.2027 96.9625 45.6587 96.8345 44.976C95.6185 46.512 94.0931 47.28 92.2585 47.28C91.2345 47.28 90.3918 47.0347 89.7305 46.544C89.0905 46.0533 88.7705 45.3173 88.7705 44.336C88.7705 41.6907 91.4265 39.856 96.7385 38.832L96.7385 36.016C96.7385 35.0773 96.5145 34.384 96.0665 33.936C95.6185 33.488 94.8398 33.264 93.7305 33.264C92.1731 33.264 90.7758 33.6587 89.5385 34.448L89.3785 34.224C91.1278 32.0053 93.4318 30.896 96.2905 30.896C97.8691 30.896 99.0211 31.2587 99.7465 31.984C100.472 32.7093 100.834 33.68 100.834 34.896L100.834 43.6C100.834 44.5387 101.272 45.008 102.146 45.008C102.637 45.008 103.106 44.8373 103.554 44.496L103.618 44.592C102.765 46.3413 101.506 47.216 99.8425 47.216ZM109.801 47.28C107.156 47.28 105.833 45.904 105.833 43.152L105.833 32.016L104.073 32.016L104.073 31.792L109.609 27.728L109.929 27.728L109.929 31.376L113.929 31.376L113.929 32.016L109.929 32.016L109.929 43.024C109.929 44.6667 110.687 45.488 112.201 45.488C112.543 45.488 112.873 45.4453 113.193 45.36C113.513 45.2747 113.748 45.2 113.897 45.136C114.047 45.0507 114.143 44.9867 114.185 44.944L114.281 45.04C113.321 46.5333 111.828 47.28 109.801 47.28ZM120.961 25.776C120.961 26.416 120.727 26.96 120.257 27.408C119.809 27.856 119.265 28.08 118.625 28.08C117.985 28.08 117.441 27.856 116.993 27.408C116.545 26.96 116.321 26.416 116.321 25.776C116.321 25.1573 116.545 24.624 116.993 24.176C117.441 23.7067 117.985 23.472 118.625 23.472C119.265 23.472 119.809 23.7067 120.257 24.176C120.727 24.624 120.961 25.1573 120.961 25.776ZM116.129 46.736C116.641 44.8373 116.897 42.8747 116.897 40.848L116.897 37.232C116.897 35.3547 116.385 33.84 115.361 32.688L115.361 32.496L120.961 30.736L120.961 40.848C120.961 43.4293 121.207 45.392 121.697 46.736L121.697 46.8L116.129 46.8L116.129 46.736ZM124.896 35.664C124.128 33.7013 123.37 32.2933 122.624 31.44L122.624 31.376L129.248 31.376L129.248 31.44C128.992 31.8453 128.842 32.3893 128.8 33.072C128.778 33.7547 128.928 34.576 129.248 35.536L131.648 41.872L133.952 36.144C134.208 35.4613 134.346 34.7893 134.368 34.128C134.389 33.4453 134.336 32.9013 134.208 32.496C134.08 32.0693 133.92 31.7173 133.728 31.44L133.728 31.376L137.408 31.376L137.408 31.44C136.405 32.528 135.53 33.9787 134.784 35.792L130.24 47.088L129.408 47.088L124.896 35.664ZM144.819 31.472C143.817 31.472 143.027 31.9733 142.451 32.976C141.897 33.9787 141.577 35.2587 141.491 36.816L147.379 36.688L147.379 35.952C147.379 32.9653 146.526 31.472 144.819 31.472ZM151.443 42.384C150.995 43.856 150.195 45.04 149.043 45.936C147.913 46.832 146.505 47.28 144.819 47.28C142.601 47.28 140.798 46.5333 139.411 45.04C138.046 43.5253 137.363 41.6373 137.363 39.376C137.363 36.9013 138.121 34.8747 139.635 33.296C141.15 31.696 142.931 30.896 144.979 30.896C146.921 30.896 148.489 31.5787 149.683 32.944C150.899 34.288 151.486 35.7707 151.443 37.392L141.491 37.36L141.491 37.456C141.491 39.76 141.971 41.456 142.931 42.544C143.913 43.6107 145.246 44.144 146.931 44.144C148.766 44.144 150.206 43.5253 151.251 42.288L151.443 42.384Z"
              fill="#FFFFFF" fill-opacity="1.000000" fill-rule="evenodd"/>
    </g>

    <g id="facebook">
        <defs>
            <clipPath id="clip1_791">
                <rect id="Frame" width="24.000000" height="24.000000" fill="white" fill-opacity="0"/>
            </clipPath>
        </defs>
        <rect id="Frame" width="24.000000" height="24.000000" fill="#FFFFFF" fill-opacity="0"/>
        <g clip-path="url(#clip1_791)">
            <path id="Vector" d="M3.27271 0L20.7273 0C22.5347 0 24 1.46527 24 3.27271L24 20.7273C24 22.5347 22.5347 24 20.7273 24L3.27271 24C1.46527 24 0 22.5347 0 20.7273L0 3.27271C0 1.46527 1.46527 0 3.27271 0Z" fill="#D3F85A" fill-opacity="1.000000" fill-rule="evenodd"/>
            <path id="Vector" d="M15.8018 10.5791L15.5605 12.6696C15.5505 12.765 15.5057 12.8533 15.4349 12.9179C15.364 12.9825 15.2719 13.0189 15.1759 13.02L12.9941 13.02L12.9832 19.2177C12.9839 19.2912 12.9557 19.3619 12.9047 19.4148C12.8537 19.4676 12.7839 19.4982 12.7104 19.5L10.5 19.5C10.4633 19.5 10.4269 19.4926 10.3931 19.4783C10.3593 19.4639 10.3287 19.4428 10.3032 19.4163C10.2777 19.3898 10.2579 19.3585 10.2448 19.3241C10.2318 19.2897 10.2258 19.2531 10.2273 19.2164L10.2273 13.02L8.59094 13.02C8.53955 13.0195 8.48877 13.0088 8.44147 12.9886C8.39417 12.9685 8.35132 12.9392 8.31537 12.9025C8.27942 12.8658 8.25104 12.8223 8.23187 12.7747C8.21271 12.7269 8.20312 12.676 8.20367 12.6246L8.1955 10.5341C8.19476 10.4825 8.20422 10.4313 8.22327 10.3834C8.24237 10.3354 8.27069 10.2917 8.30664 10.2548C8.34259 10.2178 8.3855 10.1883 8.43286 10.1679C8.48022 10.1475 8.53119 10.1366 8.58276 10.1359L10.2273 10.1359L10.2273 8.11774C10.2273 5.77502 11.6182 4.5 13.6582 4.5L15.33 4.5C15.3817 4.50055 15.4328 4.51129 15.4803 4.53156C15.5278 4.55188 15.5709 4.58142 15.607 4.61841C15.6431 4.6554 15.6716 4.69916 15.6907 4.74713C15.7099 4.79517 15.7194 4.8465 15.7186 4.89819L15.7186 6.65729C15.7194 6.70898 15.7099 6.76025 15.6907 6.80829C15.6716 6.85632 15.6431 6.90009 15.607 6.93707C15.5709 6.97406 15.5278 7.00354 15.4803 7.02386C15.4328 7.04419 15.3817 7.05493 15.33 7.05548L14.3046 7.05548C13.1959 7.05548 12.9805 7.60089 12.9805 8.3891L12.9805 10.1359L15.4173 10.1359C15.4727 10.1366 15.5273 10.149 15.5776 10.1724C15.6279 10.1957 15.6727 10.2294 15.709 10.2712C15.7453 10.3131 15.7724 10.3622 15.7884 10.4152C15.8044 10.4683 15.809 10.5241 15.8018 10.5791Z" fill="#090F1D" fill-opacity="1.000000" fill-rule="nonzero"/>
        </g>
    </g>

    <g id="telegram">
        <defs>
            <clipPath id="clip1_796">
                <rect id="Frame" width="24.000000" height="24.000000" fill="white" fill-opacity="0"/>
            </clipPath>
        </defs>
        <rect id="Frame" width="24.000000" height="24.000000" fill="#FFFFFF" fill-opacity="0"/>
        <g clip-path="url(#clip1_796)">
            <path id="Vector" d="M3.27271 0L20.7273 0C22.5347 0 24 1.46527 24 3.27271L24 20.7273C24 22.5347 22.5347 24 20.7273 24L3.27271 24C1.46527 24 0 22.5347 0 20.7273L0 3.27271C0 1.46527 1.46527 0 3.27271 0Z" fill="#FFFFFF" fill-opacity="1.000000" fill-rule="evenodd"/>
            <path id="Vector" d="M18.5373 6.20428L18.2891 6.29431L4.81909 11.1475C4.72363 11.177 4.64069 11.2374 4.58325 11.3191C4.52576 11.4008 4.49701 11.4993 4.50159 11.5991C4.5061 11.699 4.54358 11.7944 4.60822 11.8707C4.67285 11.9468 4.76093 11.9995 4.85864 12.0202L8.34546 12.9747L8.99591 14.8839L9.64636 16.793C9.68378 16.8865 9.74341 16.9696 9.82013 17.0349C9.89691 17.1002 9.9884 17.1458 10.0868 17.1677C10.1851 17.1896 10.2874 17.1871 10.3846 17.1606C10.4818 17.134 10.571 17.0841 10.6446 17.0152L12.4459 15.3134L15.9832 17.712C16.4155 18.0066 17.0319 17.7884 17.1423 17.3029L19.485 6.9516C19.5995 6.43884 19.0596 6.01746 18.5373 6.20428ZM16.8177 8.50201L10.7319 13.4766L10.4455 13.7111C10.3826 13.761 10.3415 13.8334 10.3309 13.913L10.2668 14.442L10.0909 15.9284C10.0924 15.9465 10.0866 15.9644 10.0748 15.9782C10.063 15.992 10.0463 16.0006 10.0282 16.002C10.0101 16.0035 9.99219 15.9977 9.97839 15.9859C9.9646 15.9742 9.95599 15.9574 9.95459 15.9393L9.45959 14.4543L8.94818 12.9338C8.92657 12.8655 8.92944 12.7917 8.95636 12.7253C8.98322 12.6589 9.03241 12.6038 9.09546 12.5698L15.4282 8.93976L16.6201 8.25793C16.7932 8.15704 16.9705 8.37659 16.8177 8.50201Z" fill="#090F1D" fill-opacity="1.000000" fill-rule="nonzero"/>
        </g>
    </g>

    <g id="twitter">
        <defs>
            <clipPath id="clip1_801">
                <rect id="Frame" width="24.000000" height="24.000000" fill="white" fill-opacity="0"/>
            </clipPath>
        </defs>
        <rect id="Frame" width="24.000000" height="24.000000" fill="#FFFFFF" fill-opacity="0"/>
        <g clip-path="url(#clip1_801)">
            <path id="Vector" d="M3.27271 0L20.7273 0C22.5347 0 24 1.46527 24 3.27271L24 20.7273C24 22.5347 22.5347 24 20.7273 24L3.27271 24C1.46527 24 0 22.5347 0 20.7273L0 3.27271C0 1.46527 1.46527 0 3.27271 0Z" fill="#FFFFFF" fill-opacity="1.000000" fill-rule="evenodd"/>
            <path id="Vector" d="M19.4713 7.46021C19.1153 7.99207 18.6819 8.46777 18.1854 8.87158C18.121 8.92279 18.069 8.98792 18.0334 9.06207C17.9977 9.13623 17.9793 9.21747 17.9795 9.29974L17.9795 9.35022C17.9738 10.4219 17.7771 11.4839 17.3986 12.4866C17.0087 13.5375 16.4296 14.508 15.6899 15.3502C14.7005 16.4781 13.426 17.3193 11.9999 17.7856C11.0603 18.0906 10.0779 18.2435 9.08997 18.2384C7.52539 18.2368 5.98901 17.8219 4.63635 17.0357C4.58789 17.0082 4.5498 16.9655 4.52789 16.9143C4.50598 16.8631 4.5014 16.8061 4.51495 16.752C4.52869 16.6986 4.55988 16.6513 4.60364 16.6177C4.6474 16.584 4.70117 16.5661 4.75635 16.5666L5.12994 16.5666C6.31915 16.5664 7.4812 16.2107 8.4668 15.5452C7.87927 15.4492 7.32953 15.1933 6.87781 14.8055C6.42609 14.4178 6.08984 13.9132 5.90588 13.347C5.89685 13.3192 5.89526 13.2894 5.90118 13.2606C5.90717 13.2319 5.92053 13.2052 5.93988 13.1832C5.95929 13.1612 5.98407 13.1446 6.01184 13.1351C6.03955 13.1255 6.06934 13.1234 6.09814 13.1288C6.27795 13.163 6.46057 13.1804 6.64362 13.1807L6.71179 13.1807C6.14233 12.919 5.66089 12.498 5.32574 11.9685C4.99054 11.439 4.81598 10.8237 4.82312 10.197C4.82355 10.1677 4.83154 10.1389 4.84631 10.1135C4.86115 10.0881 4.88226 10.0669 4.90765 10.0521C4.93304 10.0373 4.96185 10.0292 4.99121 10.0289C5.02063 10.0284 5.04962 10.0356 5.07544 10.0497C5.30646 10.1788 5.55426 10.2751 5.81177 10.3361C5.30188 9.83197 4.97363 9.17291 4.87866 8.46216C4.78363 7.7514 4.92719 7.02924 5.2868 6.40887C5.3006 6.38599 5.31958 6.3667 5.34229 6.3526C5.36493 6.3385 5.39062 6.33002 5.41724 6.32776C5.44385 6.3255 5.47058 6.32953 5.4953 6.3396C5.52008 6.34967 5.54205 6.36548 5.55951 6.38568C6.27368 7.26855 7.15796 7.9989 8.15985 8.53345C9.16174 9.06799 10.2608 9.39587 11.3918 9.4975L11.4041 9.4975C11.4208 9.49695 11.4373 9.49304 11.4525 9.48602C11.4677 9.479 11.4814 9.46899 11.4927 9.4566C11.5035 9.44415 11.5117 9.42963 11.5167 9.41394C11.5215 9.39819 11.5231 9.38159 11.5213 9.36523C11.4791 8.96924 11.5049 8.56891 11.5977 8.18158C11.679 7.84253 11.8173 7.51971 12.0068 7.22705C12.4044 6.60254 13.0101 6.13879 13.7168 5.91797C14.0482 5.81403 14.3935 5.76068 14.7408 5.75977C15.5286 5.75897 16.2895 6.04608 16.8804 6.56702C16.9557 6.63397 17.0524 6.67169 17.1531 6.6734C17.1863 6.67285 17.2193 6.66827 17.2513 6.65979C17.8068 6.51923 18.3391 6.29926 18.8318 6.00659C18.8615 5.98944 18.8956 5.98163 18.9297 5.98419C18.9639 5.98676 18.9965 5.99951 19.0233 6.02087C19.05 6.04224 19.0698 6.07111 19.0799 6.10382C19.09 6.1366 19.09 6.17157 19.08 6.20428C18.9147 6.7204 18.622 7.18658 18.2291 7.55975C18.5835 7.4751 18.9295 7.35828 19.2627 7.21069C19.2963 7.19568 19.3339 7.19208 19.3697 7.20038C19.4055 7.20868 19.4376 7.22845 19.4612 7.25665C19.4848 7.28491 19.4986 7.32001 19.5004 7.35675C19.5022 7.39349 19.492 7.42981 19.4713 7.46021Z" fill="#090F1D" fill-opacity="1.000000" fill-rule="nonzero"/>
        </g>
    </g>

    <g id="linkedIn">
        <defs>
            <clipPath id="clip1_806">
                <rect id="Frame" width="24.000000" height="24.000000" fill="white" fill-opacity="0"/>
            </clipPath>
        </defs>
        <rect id="Frame" width="24.000000" height="24.000000" fill="#FFFFFF" fill-opacity="0"/>
        <g clip-path="url(#clip1_806)">
            <path id="Vector" d="M3.27271 0L20.7273 0C22.5347 0 24 1.46527 24 3.27271L24 20.7273C24 22.5347 22.5347 24 20.7273 24L3.27271 24C1.46527 24 0 22.5347 0 20.7273L0 3.27271C0 1.46527 1.46527 0 3.27271 0Z" fill="#FFFFFF" fill-opacity="1.000000" fill-rule="evenodd"/>
            <path id="Vector" d="M8.64545 6.54547C8.64545 6.95001 8.52551 7.34546 8.30078 7.68182C8.07599 8.01825 7.75653 8.2804 7.38281 8.43518C7.00903 8.59003 6.59778 8.63055 6.20099 8.55164C5.8042 8.47266 5.43976 8.27789 5.15369 7.99182C4.86761 7.70575 4.67279 7.34131 4.59387 6.94452C4.51495 6.54773 4.55548 6.13647 4.71027 5.7627C4.86511 5.38892 5.12726 5.06946 5.46362 4.84473C5.79999 4.61993 6.1955 4.5 6.60004 4.5C7.14252 4.5 7.66278 4.71552 8.04639 5.09912C8.42999 5.48273 8.64545 6.00299 8.64545 6.54547ZM8.18182 9.95453L8.18182 18.9914C8.18219 19.058 8.16937 19.1241 8.1441 19.1858C8.11884 19.2475 8.08167 19.3036 8.03461 19.3509C7.98761 19.3981 7.9317 19.4356 7.87018 19.4612C7.80859 19.4868 7.74261 19.5 7.6759 19.5L5.52002 19.5C5.45337 19.5002 5.38733 19.4872 5.32568 19.4617C5.26404 19.4363 5.20807 19.399 5.16095 19.3518C5.11377 19.3047 5.07642 19.2487 5.05103 19.1871C5.02557 19.1254 5.01257 19.0594 5.01276 18.9927L5.01276 9.95453C5.01276 9.82001 5.06622 9.69098 5.16132 9.59583C5.25647 9.50073 5.3855 9.44727 5.52002 9.44727L7.6759 9.44727C7.81024 9.44763 7.9389 9.50122 8.03375 9.59631C8.1286 9.69141 8.18182 9.82025 8.18182 9.95453ZM19.4509 14.6591L19.4509 19.0336C19.4511 19.0949 19.4391 19.1556 19.4158 19.2123C19.3924 19.269 19.3581 19.3205 19.3148 19.3638C19.2714 19.4072 19.2199 19.4415 19.1633 19.4648C19.1066 19.4882 19.0458 19.5002 18.9846 19.5L16.6664 19.5C16.6051 19.5002 16.5444 19.4882 16.4877 19.4648C16.431 19.4415 16.3796 19.4072 16.3362 19.3638C16.2928 19.3205 16.2585 19.269 16.2352 19.2123C16.2118 19.1556 16.1998 19.0949 16.2 19.0336L16.2 14.7941C16.2 14.1614 16.3855 12.0232 14.546 12.0232C13.1209 12.0232 12.8304 13.4864 12.7732 14.1436L12.7732 19.0336C12.7732 19.1561 12.725 19.2737 12.639 19.361C12.553 19.4483 12.4362 19.4982 12.3137 19.5L10.0746 19.5C10.0134 19.5 9.95282 19.4879 9.8963 19.4645C9.83978 19.441 9.78845 19.4066 9.7453 19.3633C9.70209 19.32 9.66785 19.2686 9.64459 19.212C9.62128 19.1555 9.60938 19.0948 9.60956 19.0336L9.60956 9.91498C9.60938 9.85382 9.62128 9.79321 9.64459 9.73663C9.66785 9.68005 9.70209 9.62866 9.7453 9.58533C9.78845 9.54199 9.83978 9.50763 9.8963 9.48419C9.95282 9.46069 10.0134 9.44861 10.0746 9.44861L12.3137 9.44861C12.4373 9.44861 12.556 9.49774 12.6434 9.58521C12.7309 9.67267 12.78 9.79132 12.78 9.91498L12.78 10.7032C13.3091 9.90955 14.0932 9.2973 15.7664 9.2973C19.4728 9.2973 19.4509 12.7582 19.4509 14.6591Z" fill="#090F1D" fill-opacity="1.000000" fill-rule="nonzero"/>
        </g>
    </g>


</svg>
