<svg width="24" height="24" viewBox="0 0 24 24" fill="none" xmlns="http://www.w3.org/2000/svg"
     xmlns:xlink="http://www.w3.org/1999/xlink">
    <g id="logo">
        <path id="Ellipse 4"
              d="M27.0543 13.9395C25.6581 10.3381 22.9303 7.64185 19.6512 6.19482C16.119 4.63232 12.2835 4.65454 8.94171 5.9502C5.33905 7.34277 2.64276 10.0706 1.19586 13.3499C-0.366821 16.8821 -0.344482 20.7175 0.95105 24.0593C2.34381 27.6619 5.07159 30.3582 8.35071 31.8052C11.883 33.3677 15.7184 33.3455 19.0602 32.0498C22.6629 30.6572 25.3592 27.9294 26.8094 24.6519L14.001 19L27.0543 13.9395Z"
              fill="#D3F85A" fill-opacity="1.000000" fill-rule="evenodd"/>
        <circle id="Ellipse 5" cx="6.000977" cy="19.000000" r="2.000000" fill="#090F1D" fill-opacity="1.000000"/>
        <path id="Creativeart"
              d="M159.003 45.072C159.792 45.072 160.475 44.8587 161.051 44.432L161.051 39.408C158.192 40.1333 156.763 41.3387 156.763 43.024C156.763 43.664 156.955 44.1653 157.339 44.528C157.744 44.8907 158.299 45.072 159.003 45.072ZM164.155 47.216C163.302 47.216 162.619 47.0133 162.107 46.608C161.595 46.2027 161.275 45.6587 161.147 44.976C159.931 46.512 158.406 47.28 156.571 47.28C155.547 47.28 154.704 47.0347 154.043 46.544C153.403 46.0533 153.083 45.3173 153.083 44.336C153.083 41.6907 155.739 39.856 161.051 38.832L161.051 36.016C161.051 35.0773 160.827 34.384 160.379 33.936C159.931 33.488 159.152 33.264 158.043 33.264C156.486 33.264 155.088 33.6587 153.851 34.448L153.691 34.224C155.44 32.0053 157.744 30.896 160.603 30.896C162.182 30.896 163.334 31.2587 164.059 31.984C164.784 32.7093 165.147 33.68 165.147 34.896L165.147 43.6C165.147 44.5387 165.584 45.008 166.459 45.008C166.95 45.008 167.419 44.8373 167.867 44.496L167.931 44.592C167.078 46.3413 165.819 47.216 164.155 47.216ZM169.161 46.8L169.161 46.736C169.652 45.136 169.897 43.1733 169.897 40.848L169.897 37.136C169.897 35.3013 169.396 33.776 168.393 32.56L168.393 32.496L173.865 30.736L173.865 34.64L173.897 34.64C174.004 34.5333 174.271 34.2347 174.697 33.744C175.124 33.2533 175.455 32.8907 175.689 32.656C175.945 32.4213 176.276 32.1333 176.681 31.792C177.108 31.4507 177.535 31.216 177.961 31.088C178.388 30.9387 178.825 30.8747 179.273 30.896L178.985 35.472L178.825 35.472C178.505 35.1093 178.015 34.7893 177.353 34.512C176.713 34.2347 176.191 34.096 175.785 34.096C175.231 34.096 174.633 34.48 173.993 35.248L173.993 40.848C173.993 43.4507 174.239 45.4133 174.729 46.736L174.729 46.8L169.161 46.8ZM186.239 47.28C183.593 47.28 182.271 45.904 182.271 43.152L182.271 32.016L180.511 32.016L180.511 31.792L186.047 27.728L186.367 27.728L186.367 31.376L190.367 31.376L190.367 32.016L186.367 32.016L186.367 43.024C186.367 44.6667 187.124 45.488 188.639 45.488C188.98 45.488 189.311 45.4453 189.631 45.36C189.951 45.2747 190.185 45.2 190.335 45.136C190.484 45.0507 190.58 44.9867 190.623 44.944L190.719 45.04C189.759 46.5333 188.265 47.28 186.239 47.28Z"
              fill="#D3F85A" fill-opacity="1.000000" fill-rule="evenodd"/>
        <path id="Creativeart"
              d="M58.209 44.944C57.633 45.392 56.5236 45.8933 54.881 46.448C53.2596 47.0027 51.4783 47.28 49.537 47.28C45.8463 47.28 42.817 46.1387 40.449 43.856C38.1023 41.5733 36.929 38.6933 36.929 35.216C36.929 31.7387 38.1663 28.816 40.641 26.448C43.1156 24.08 46.2303 22.896 49.985 22.896C52.6303 22.896 55.329 23.3547 58.081 24.272L58.721 29.808L58.433 29.904C56.7476 27.5573 55.2863 25.9147 54.049 24.976C52.8116 24.0373 51.361 23.568 49.697 23.568C48.3316 23.568 47.137 23.856 46.113 24.432C45.1103 24.9867 44.3103 25.7973 43.713 26.864C43.1156 27.9307 42.6783 29.1573 42.401 30.544C42.1236 31.9093 41.985 33.4667 41.985 35.216C41.985 38.736 42.625 41.52 43.905 43.568C45.185 45.5947 47.073 46.608 49.569 46.608C51.5316 46.608 53.1743 45.968 54.497 44.688C55.8196 43.408 57.1743 41.4347 58.561 38.768L58.849 38.864L58.209 44.944ZM61.7862 46.8L61.7862 46.736C62.2769 45.136 62.5222 43.1733 62.5222 40.848L62.5222 37.136C62.5222 35.3013 62.0209 33.776 61.0182 32.56L61.0182 32.496L66.4902 30.736L66.4902 34.64L66.5222 34.64C66.6289 34.5333 66.8956 34.2347 67.3222 33.744C67.7489 33.2533 68.0796 32.8907 68.3142 32.656C68.5702 32.4213 68.9009 32.1333 69.3062 31.792C69.7329 31.4507 70.1596 31.216 70.5862 31.088C71.0129 30.9387 71.4502 30.8747 71.8982 30.896L71.6102 35.472L71.4502 35.472C71.1302 35.1093 70.6396 34.7893 69.9782 34.512C69.3382 34.2347 68.8156 34.096 68.4102 34.096C67.8556 34.096 67.2582 34.48 66.6182 35.248L66.6182 40.848C66.6182 43.4507 66.8636 45.4133 67.3542 46.736L67.3542 46.8L61.7862 46.8ZM80.507 31.472C79.5043 31.472 78.715 31.9733 78.139 32.976C77.5843 33.9787 77.2643 35.2587 77.179 36.816L83.067 36.688L83.067 35.952C83.067 32.9653 82.2136 31.472 80.507 31.472ZM87.131 42.384C86.683 43.856 85.883 45.04 84.731 45.936C83.6003 46.832 82.1923 47.28 80.507 47.28C78.2883 47.28 76.4856 46.5333 75.099 45.04C73.7336 43.5253 73.051 41.6373 73.051 39.376C73.051 36.9013 73.8083 34.8747 75.323 33.296C76.8376 31.696 78.619 30.896 80.667 30.896C82.6083 30.896 84.1763 31.5787 85.371 32.944C86.587 34.288 87.1736 35.7707 87.131 37.392L77.179 37.36L77.179 37.456C77.179 39.76 77.659 41.456 78.619 42.544C79.6003 43.6107 80.9336 44.144 82.619 44.144C84.4536 44.144 85.8936 43.5253 86.939 42.288L87.131 42.384ZM94.6905 45.072C95.4798 45.072 96.1625 44.8587 96.7385 44.432L96.7385 39.408C93.8798 40.1333 92.4505 41.3387 92.4505 43.024C92.4505 43.664 92.6425 44.1653 93.0265 44.528C93.4318 44.8907 93.9865 45.072 94.6905 45.072ZM99.8425 47.216C98.9891 47.216 98.3065 47.0133 97.7945 46.608C97.2825 46.2027 96.9625 45.6587 96.8345 44.976C95.6185 46.512 94.0931 47.28 92.2585 47.28C91.2345 47.28 90.3918 47.0347 89.7305 46.544C89.0905 46.0533 88.7705 45.3173 88.7705 44.336C88.7705 41.6907 91.4265 39.856 96.7385 38.832L96.7385 36.016C96.7385 35.0773 96.5145 34.384 96.0665 33.936C95.6185 33.488 94.8398 33.264 93.7305 33.264C92.1731 33.264 90.7758 33.6587 89.5385 34.448L89.3785 34.224C91.1278 32.0053 93.4318 30.896 96.2905 30.896C97.8691 30.896 99.0211 31.2587 99.7465 31.984C100.472 32.7093 100.834 33.68 100.834 34.896L100.834 43.6C100.834 44.5387 101.272 45.008 102.146 45.008C102.637 45.008 103.106 44.8373 103.554 44.496L103.618 44.592C102.765 46.3413 101.506 47.216 99.8425 47.216ZM109.801 47.28C107.156 47.28 105.833 45.904 105.833 43.152L105.833 32.016L104.073 32.016L104.073 31.792L109.609 27.728L109.929 27.728L109.929 31.376L113.929 31.376L113.929 32.016L109.929 32.016L109.929 43.024C109.929 44.6667 110.687 45.488 112.201 45.488C112.543 45.488 112.873 45.4453 113.193 45.36C113.513 45.2747 113.748 45.2 113.897 45.136C114.047 45.0507 114.143 44.9867 114.185 44.944L114.281 45.04C113.321 46.5333 111.828 47.28 109.801 47.28ZM120.961 25.776C120.961 26.416 120.727 26.96 120.257 27.408C119.809 27.856 119.265 28.08 118.625 28.08C117.985 28.08 117.441 27.856 116.993 27.408C116.545 26.96 116.321 26.416 116.321 25.776C116.321 25.1573 116.545 24.624 116.993 24.176C117.441 23.7067 117.985 23.472 118.625 23.472C119.265 23.472 119.809 23.7067 120.257 24.176C120.727 24.624 120.961 25.1573 120.961 25.776ZM116.129 46.736C116.641 44.8373 116.897 42.8747 116.897 40.848L116.897 37.232C116.897 35.3547 116.385 33.84 115.361 32.688L115.361 32.496L120.961 30.736L120.961 40.848C120.961 43.4293 121.207 45.392 121.697 46.736L121.697 46.8L116.129 46.8L116.129 46.736ZM124.896 35.664C124.128 33.7013 123.37 32.2933 122.624 31.44L122.624 31.376L129.248 31.376L129.248 31.44C128.992 31.8453 128.842 32.3893 128.8 33.072C128.778 33.7547 128.928 34.576 129.248 35.536L131.648 41.872L133.952 36.144C134.208 35.4613 134.346 34.7893 134.368 34.128C134.389 33.4453 134.336 32.9013 134.208 32.496C134.08 32.0693 133.92 31.7173 133.728 31.44L133.728 31.376L137.408 31.376L137.408 31.44C136.405 32.528 135.53 33.9787 134.784 35.792L130.24 47.088L129.408 47.088L124.896 35.664ZM144.819 31.472C143.817 31.472 143.027 31.9733 142.451 32.976C141.897 33.9787 141.577 35.2587 141.491 36.816L147.379 36.688L147.379 35.952C147.379 32.9653 146.526 31.472 144.819 31.472ZM151.443 42.384C150.995 43.856 150.195 45.04 149.043 45.936C147.913 46.832 146.505 47.28 144.819 47.28C142.601 47.28 140.798 46.5333 139.411 45.04C138.046 43.5253 137.363 41.6373 137.363 39.376C137.363 36.9013 138.121 34.8747 139.635 33.296C141.15 31.696 142.931 30.896 144.979 30.896C146.921 30.896 148.489 31.5787 149.683 32.944C150.899 34.288 151.486 35.7707 151.443 37.392L141.491 37.36L141.491 37.456C141.491 39.76 141.971 41.456 142.931 42.544C143.913 43.6107 145.246 44.144 146.931 44.144C148.766 44.144 150.206 43.5253 151.251 42.288L151.443 42.384Z"
              fill="#FFFFFF" fill-opacity="1.000000" fill-rule="evenodd"/>
    </g>

    <g id="facebook">
        <defs>
            <clipPath id="clip1_791">
                <rect id="Frame" width="24.000000" height="24.000000" fill="white" fill-opacity="0"/>
            </clipPath>
        </defs>
        <rect id="Frame" width="24.000000" height="24.000000" fill="#FFFFFF" fill-opacity="0"/>
        <g clip-path="url(#clip1_791)">
            <path id="Vector" d="M3.27271 0L20.7273 0C22.5347 0 24 1.46527 24 3.27271L24 20.7273C24 22.5347 22.5347 24 20.7273 24L3.27271 24C1.46527 24 0 22.5347 0 20.7273L0 3.27271C0 1.46527 1.46527 0 3.27271 0Z" fill="#FFFFFF" fill-opacity="1.000000" fill-rule="evenodd"/>
            <path id="Vector" d="M15.8018 10.5791L15.5605 12.6696C15.5505 12.765 15.5057 12.8533 15.4349 12.9179C15.364 12.9825 15.2719 13.0189 15.1759 13.02L12.9941 13.02L12.9832 19.2177C12.9839 19.2912 12.9557 19.3619 12.9047 19.4148C12.8537 19.4676 12.7839 19.4982 12.7104 19.5L10.5 19.5C10.4633 19.5 10.4269 19.4926 10.3931 19.4783C10.3593 19.4639 10.3287 19.4428 10.3032 19.4163C10.2777 19.3898 10.2579 19.3585 10.2448 19.3241C10.2318 19.2897 10.2258 19.2531 10.2273 19.2164L10.2273 13.02L8.59094 13.02C8.53955 13.0195 8.48877 13.0088 8.44147 12.9886C8.39417 12.9685 8.35132 12.9392 8.31537 12.9025C8.27942 12.8658 8.25104 12.8223 8.23187 12.7747C8.21271 12.7269 8.20312 12.676 8.20367 12.6246L8.1955 10.5341C8.19476 10.4825 8.20422 10.4313 8.22327 10.3834C8.24237 10.3354 8.27069 10.2917 8.30664 10.2548C8.34259 10.2178 8.3855 10.1883 8.43286 10.1679C8.48022 10.1475 8.53119 10.1366 8.58276 10.1359L10.2273 10.1359L10.2273 8.11774C10.2273 5.77502 11.6182 4.5 13.6582 4.5L15.33 4.5C15.3817 4.50055 15.4328 4.51129 15.4803 4.53156C15.5278 4.55188 15.5709 4.58142 15.607 4.61841C15.6431 4.6554 15.6716 4.69916 15.6907 4.74713C15.7099 4.79517 15.7194 4.8465 15.7186 4.89819L15.7186 6.65729C15.7194 6.70898 15.7099 6.76025 15.6907 6.80829C15.6716 6.85632 15.6431 6.90009 15.607 6.93707C15.5709 6.97406 15.5278 7.00354 15.4803 7.02386C15.4328 7.04419 15.3817 7.05493 15.33 7.05548L14.3046 7.05548C13.1959 7.05548 12.9805 7.60089 12.9805 8.3891L12.9805 10.1359L15.4173 10.1359C15.4727 10.1366 15.5273 10.149 15.5776 10.1724C15.6279 10.1957 15.6727 10.2294 15.709 10.2712C15.7453 10.3131 15.7724 10.3622 15.7884 10.4152C15.8044 10.4683 15.809 10.5241 15.8018 10.5791Z" fill="#090F1D" fill-opacity="1.000000" fill-rule="nonzero"/>
        </g>
    </g>

    <g id="telegram">
        <defs>
            <clipPath id="clip1_796">
                <rect id="Frame" width="24.000000" height="24.000000" fill="white" fill-opacity="0"/>
            </clipPath>
        </defs>
        <rect id="Frame" width="24.000000" height="24.000000" fill="#FFFFFF" fill-opacity="0"/>
        <g clip-path="url(#clip1_796)">
            <path id="Vector" d="M3.27271 0L20.7273 0C22.5347 0 24 1.46527 24 3.27271L24 20.7273C24 22.5347 22.5347 24 20.7273 24L3.27271 24C1.46527 24 0 22.5347 0 20.7273L0 3.27271C0 1.46527 1.46527 0 3.27271 0Z" fill="#FFFFFF" fill-opacity="1.000000" fill-rule="evenodd"/>
            <path id="Vector" d="M18.5373 6.20428L18.2891 6.29431L4.81909 11.1475C4.72363 11.177 4.64069 11.2374 4.58325 11.3191C4.52576 11.4008 4.49701 11.4993 4.50159 11.5991C4.5061 11.699 4.54358 11.7944 4.60822 11.8707C4.67285 11.9468 4.76093 11.9995 4.85864 12.0202L8.34546 12.9747L8.99591 14.8839L9.64636 16.793C9.68378 16.8865 9.74341 16.9696 9.82013 17.0349C9.89691 17.1002 9.9884 17.1458 10.0868 17.1677C10.1851 17.1896 10.2874 17.1871 10.3846 17.1606C10.4818 17.134 10.571 17.0841 10.6446 17.0152L12.4459 15.3134L15.9832 17.712C16.4155 18.0066 17.0319 17.7884 17.1423 17.3029L19.485 6.9516C19.5995 6.43884 19.0596 6.01746 18.5373 6.20428ZM16.8177 8.50201L10.7319 13.4766L10.4455 13.7111C10.3826 13.761 10.3415 13.8334 10.3309 13.913L10.2668 14.442L10.0909 15.9284C10.0924 15.9465 10.0866 15.9644 10.0748 15.9782C10.063 15.992 10.0463 16.0006 10.0282 16.002C10.0101 16.0035 9.99219 15.9977 9.97839 15.9859C9.9646 15.9742 9.95599 15.9574 9.95459 15.9393L9.45959 14.4543L8.94818 12.9338C8.92657 12.8655 8.92944 12.7917 8.95636 12.7253C8.98322 12.6589 9.03241 12.6038 9.09546 12.5698L15.4282 8.93976L16.6201 8.25793C16.7932 8.15704 16.9705 8.37659 16.8177 8.50201Z" fill="#090F1D" fill-opacity="1.000000" fill-rule="nonzero"/>
        </g>
    </g>

    <g id="twitter">
        <defs>
            <clipPath id="clip1_801">
                <rect id="Frame" width="24.000000" height="24.000000" fill="white" fill-opacity="0"/>
            </clipPath>
        </defs>
        <rect id="Frame" width="24.000000" height="24.000000" fill="#FFFFFF" fill-opacity="0"/>
        <g clip-path="url(#clip1_801)">
            <path id="Vector" d="M3.27271 0L20.7273 0C22.5347 0 24 1.46527 24 3.27271L24 20.7273C24 22.5347 22.5347 24 20.7273 24L3.27271 24C1.46527 24 0 22.5347 0 20.7273L0 3.27271C0 1.46527 1.46527 0 3.27271 0Z" fill="#FFFFFF" fill-opacity="1.000000" fill-rule="evenodd"/>
            <path id="Vector" d="M19.4713 7.46021C19.1153 7.99207 18.6819 8.46777 18.1854 8.87158C18.121 8.92279 18.069 8.98792 18.0334 9.06207C17.9977 9.13623 17.9793 9.21747 17.9795 9.29974L17.9795 9.35022C17.9738 10.4219 17.7771 11.4839 17.3986 12.4866C17.0087 13.5375 16.4296 14.508 15.6899 15.3502C14.7005 16.4781 13.426 17.3193 11.9999 17.7856C11.0603 18.0906 10.0779 18.2435 9.08997 18.2384C7.52539 18.2368 5.98901 17.8219 4.63635 17.0357C4.58789 17.0082 4.5498 16.9655 4.52789 16.9143C4.50598 16.8631 4.5014 16.8061 4.51495 16.752C4.52869 16.6986 4.55988 16.6513 4.60364 16.6177C4.6474 16.584 4.70117 16.5661 4.75635 16.5666L5.12994 16.5666C6.31915 16.5664 7.4812 16.2107 8.4668 15.5452C7.87927 15.4492 7.32953 15.1933 6.87781 14.8055C6.42609 14.4178 6.08984 13.9132 5.90588 13.347C5.89685 13.3192 5.89526 13.2894 5.90118 13.2606C5.90717 13.2319 5.92053 13.2052 5.93988 13.1832C5.95929 13.1612 5.98407 13.1446 6.01184 13.1351C6.03955 13.1255 6.06934 13.1234 6.09814 13.1288C6.27795 13.163 6.46057 13.1804 6.64362 13.1807L6.71179 13.1807C6.14233 12.919 5.66089 12.498 5.32574 11.9685C4.99054 11.439 4.81598 10.8237 4.82312 10.197C4.82355 10.1677 4.83154 10.1389 4.84631 10.1135C4.86115 10.0881 4.88226 10.0669 4.90765 10.0521C4.93304 10.0373 4.96185 10.0292 4.99121 10.0289C5.02063 10.0284 5.04962 10.0356 5.07544 10.0497C5.30646 10.1788 5.55426 10.2751 5.81177 10.3361C5.30188 9.83197 4.97363 9.17291 4.87866 8.46216C4.78363 7.7514 4.92719 7.02924 5.2868 6.40887C5.3006 6.38599 5.31958 6.3667 5.34229 6.3526C5.36493 6.3385 5.39062 6.33002 5.41724 6.32776C5.44385 6.3255 5.47058 6.32953 5.4953 6.3396C5.52008 6.34967 5.54205 6.36548 5.55951 6.38568C6.27368 7.26855 7.15796 7.9989 8.15985 8.53345C9.16174 9.06799 10.2608 9.39587 11.3918 9.4975L11.4041 9.4975C11.4208 9.49695 11.4373 9.49304 11.4525 9.48602C11.4677 9.479 11.4814 9.46899 11.4927 9.4566C11.5035 9.44415 11.5117 9.42963 11.5167 9.41394C11.5215 9.39819 11.5231 9.38159 11.5213 9.36523C11.4791 8.96924 11.5049 8.56891 11.5977 8.18158C11.679 7.84253 11.8173 7.51971 12.0068 7.22705C12.4044 6.60254 13.0101 6.13879 13.7168 5.91797C14.0482 5.81403 14.3935 5.76068 14.7408 5.75977C15.5286 5.75897 16.2895 6.04608 16.8804 6.56702C16.9557 6.63397 17.0524 6.67169 17.1531 6.6734C17.1863 6.67285 17.2193 6.66827 17.2513 6.65979C17.8068 6.51923 18.3391 6.29926 18.8318 6.00659C18.8615 5.98944 18.8956 5.98163 18.9297 5.98419C18.9639 5.98676 18.9965 5.99951 19.0233 6.02087C19.05 6.04224 19.0698 6.07111 19.0799 6.10382C19.09 6.1366 19.09 6.17157 19.08 6.20428C18.9147 6.7204 18.622 7.18658 18.2291 7.55975C18.5835 7.4751 18.9295 7.35828 19.2627 7.21069C19.2963 7.19568 19.3339 7.19208 19.3697 7.20038C19.4055 7.20868 19.4376 7.22845 19.4612 7.25665C19.4848 7.28491 19.4986 7.32001 19.5004 7.35675C19.5022 7.39349 19.492 7.42981 19.4713 7.46021Z" fill="#090F1D" fill-opacity="1.000000" fill-rule="nonzero"/>
        </g>
    </g>

    <g id="linkedIn">
        <defs>
            <clipPath id="clip1_806">
                <rect id="Frame" width="24.000000" height="24.000000" fill="white" fill-opacity="0"/>
            </clipPath>
        </defs>
        <rect id="Frame" width="24.000000" height="24.000000" fill="#FFFFFF" fill-opacity="0"/>
        <g clip-path="url(#clip1_806)">
            <path id="Vector" d="M3.27271 0L20.7273 0C22.5347 0 24 1.46527 24 3.27271L24 20.7273C24 22.5347 22.5347 24 20.7273 24L3.27271 24C1.46527 24 0 22.5347 0 20.7273L0 3.27271C0 1.46527 1.46527 0 3.27271 0Z" fill="#FFFFFF" fill-opacity="1.000000" fill-rule="evenodd"/>
            <path id="Vector" d="M8.64545 6.54547C8.64545 6.95001 8.52551 7.34546 8.30078 7.68182C8.07599 8.01825 7.75653 8.2804 7.38281 8.43518C7.00903 8.59003 6.59778 8.63055 6.20099 8.55164C5.8042 8.47266 5.43976 8.27789 5.15369 7.99182C4.86761 7.70575 4.67279 7.34131 4.59387 6.94452C4.51495 6.54773 4.55548 6.13647 4.71027 5.7627C4.86511 5.38892 5.12726 5.06946 5.46362 4.84473C5.79999 4.61993 6.1955 4.5 6.60004 4.5C7.14252 4.5 7.66278 4.71552 8.04639 5.09912C8.42999 5.48273 8.64545 6.00299 8.64545 6.54547ZM8.18182 9.95453L8.18182 18.9914C8.18219 19.058 8.16937 19.1241 8.1441 19.1858C8.11884 19.2475 8.08167 19.3036 8.03461 19.3509C7.98761 19.3981 7.9317 19.4356 7.87018 19.4612C7.80859 19.4868 7.74261 19.5 7.6759 19.5L5.52002 19.5C5.45337 19.5002 5.38733 19.4872 5.32568 19.4617C5.26404 19.4363 5.20807 19.399 5.16095 19.3518C5.11377 19.3047 5.07642 19.2487 5.05103 19.1871C5.02557 19.1254 5.01257 19.0594 5.01276 18.9927L5.01276 9.95453C5.01276 9.82001 5.06622 9.69098 5.16132 9.59583C5.25647 9.50073 5.3855 9.44727 5.52002 9.44727L7.6759 9.44727C7.81024 9.44763 7.9389 9.50122 8.03375 9.59631C8.1286 9.69141 8.18182 9.82025 8.18182 9.95453ZM19.4509 14.6591L19.4509 19.0336C19.4511 19.0949 19.4391 19.1556 19.4158 19.2123C19.3924 19.269 19.3581 19.3205 19.3148 19.3638C19.2714 19.4072 19.2199 19.4415 19.1633 19.4648C19.1066 19.4882 19.0458 19.5002 18.9846 19.5L16.6664 19.5C16.6051 19.5002 16.5444 19.4882 16.4877 19.4648C16.431 19.4415 16.3796 19.4072 16.3362 19.3638C16.2928 19.3205 16.2585 19.269 16.2352 19.2123C16.2118 19.1556 16.1998 19.0949 16.2 19.0336L16.2 14.7941C16.2 14.1614 16.3855 12.0232 14.546 12.0232C13.1209 12.0232 12.8304 13.4864 12.7732 14.1436L12.7732 19.0336C12.7732 19.1561 12.725 19.2737 12.639 19.361C12.553 19.4483 12.4362 19.4982 12.3137 19.5L10.0746 19.5C10.0134 19.5 9.95282 19.4879 9.8963 19.4645C9.83978 19.441 9.78845 19.4066 9.7453 19.3633C9.70209 19.32 9.66785 19.2686 9.64459 19.212C9.62128 19.1555 9.60938 19.0948 9.60956 19.0336L9.60956 9.91498C9.60938 9.85382 9.62128 9.79321 9.64459 9.73663C9.66785 9.68005 9.70209 9.62866 9.7453 9.58533C9.78845 9.54199 9.83978 9.50763 9.8963 9.48419C9.95282 9.46069 10.0134 9.44861 10.0746 9.44861L12.3137 9.44861C12.4373 9.44861 12.556 9.49774 12.6434 9.58521C12.7309 9.67267 12.78 9.79132 12.78 9.91498L12.78 10.7032C13.3091 9.90955 14.0932 9.2973 15.7664 9.2973C19.4728 9.2973 19.4509 12.7582 19.4509 14.6591Z" fill="#090F1D" fill-opacity="1.000000" fill-rule="nonzero"/>
        </g>
    </g>

    <g id="mainSectionSvg">
        <defs/>
        <path id="Star 1" d="M85.5 68L80.7734 80.7734L68 85.5L80.7734 90.2266L85.5 103L90.2266 90.2266L103 85.5L90.2266 80.7734L85.5 68Z" fill="#FFFFFF" fill-opacity="1.000000" fill-rule="evenodd"/>
        <path id="A" d="M10.4504 86.2167L11.4074 86.4839L11.4334 84.2601L10.4707 84.4888C9.94643 84.6213 9.39011 84.7588 8.80173 84.9013C8.21348 85.033 7.64656 85.1651 7.10097 85.2974L7.10022 85.3614C7.65335 85.4958 8.22242 85.6359 8.80742 85.7814C9.38188 85.9161 9.92955 86.0612 10.4504 86.2167ZM15.6858 90.0543L5.29278 86.6683L5.32598 83.8364L15.7955 80.695L15.7663 83.1908L13.2789 83.8017L13.2416 86.9855L15.7139 87.6545L15.6858 90.0543Z" fill="#FFFFFF" fill-opacity="1.000000" fill-rule="evenodd"/>
        <path id="r" d="M16.6473 74.2805L8.86943 72.7044L9.25075 70.8226L10.6468 70.9423L10.6595 70.8795C10.194 70.4914 9.87605 70.0732 9.70565 69.6251C9.52479 69.1749 9.47462 68.7512 9.55512 68.3539C9.59961 68.1344 9.65236 67.9546 9.71338 67.8146C9.76395 67.6725 9.82596 67.5544 9.89942 67.4605L11.8147 68.2404C11.7453 68.3678 11.6864 68.4974 11.638 68.629C11.5916 68.7503 11.5515 68.8945 11.5176 69.0618C11.4583 69.3545 11.5056 69.6851 11.6595 70.0537C11.805 70.4097 12.1179 70.7452 12.5983 71.0602L17.1145 71.9754L16.6473 74.2805Z" fill="#FFFFFF" fill-opacity="1.000000" fill-rule="evenodd"/>
        <path id="t" d="M20.8038 60.1456C20.4515 61.0616 19.9349 61.6171 19.2541 61.8124C18.5771 61.9977 17.8105 61.9256 16.9543 61.5963L13.9528 60.4416L13.5621 61.4571L11.9344 60.8309L12.2814 59.6615L10.4079 58.6494L11.1087 56.8275L13.0799 57.5858L13.7635 55.8088L15.4808 56.4694L14.7972 58.2464L17.7689 59.3896C18.187 59.5504 18.5232 59.5826 18.7775 59.4862C19.0256 59.3759 19.2052 59.1764 19.3163 58.8877C19.3622 58.7682 19.3933 58.643 19.4094 58.5121C19.4293 58.3712 19.4385 58.2433 19.4369 58.1284L21.1669 58.3996C21.1539 58.6117 21.1236 58.8687 21.0761 59.1704C21.0325 59.4622 20.9417 59.7872 20.8038 60.1456Z" fill="#FFFFFF" fill-opacity="1.000000" fill-rule="evenodd"/>
        <path id="w" d="M24.8035 51.0743L17.0683 48.4129L18.3414 46.4543L21.8454 47.8158C22.2112 47.9773 22.5696 48.1402 22.9207 48.3048C23.2717 48.4693 23.6346 48.6352 24.0093 48.8025L24.0442 48.7488C23.745 48.4653 23.4474 48.1892 23.1514 47.9204C22.8612 47.6428 22.5857 47.3619 22.325 47.078L19.7191 44.3347L20.8265 42.6309L24.4003 43.8852C24.7835 44.0198 25.1564 44.1604 25.5191 44.307C25.8876 44.4448 26.2621 44.5928 26.6426 44.7511L26.6775 44.6974C26.3783 44.4139 26.0794 44.1496 25.7807 43.9046C25.4878 43.6506 25.1962 43.3848 24.906 43.1071L22.2303 40.4711L23.4162 38.6466L29.0325 44.5679L27.5328 46.8753L24.4842 45.7525C24.1304 45.6117 23.7767 45.4708 23.423 45.33C23.0751 45.1802 22.7019 45.0203 22.3035 44.8504L22.2686 44.9041C22.5857 45.1992 22.8833 45.4753 23.1614 45.7324C23.4454 45.9806 23.7235 46.2377 23.9959 46.5038L26.2684 48.8205L24.8035 51.0743Z" fill="#FFFFFF" fill-opacity="1.000000" fill-rule="evenodd"/>
        <path id="o" d="M37.0508 35.7382C36.569 36.2067 36.0025 36.5344 35.3511 36.7214C34.7 36.8933 34.0288 36.8839 33.3375 36.6932C32.6387 36.4948 31.9845 36.0821 31.3748 35.455C30.7576 34.8202 30.3633 34.1547 30.1921 33.4583C30.0208 32.7619 30.0339 32.0945 30.2315 31.4561C30.4292 30.8026 30.769 30.2417 31.2508 29.7732C31.7325 29.3047 32.299 28.9846 32.9501 28.8126C33.5938 28.6331 34.2613 28.6387 34.9526 28.8294C35.6439 29.0201 36.2982 29.4329 36.9154 30.0676C37.5251 30.6947 37.9193 31.3603 38.098 32.0643C38.2693 32.7607 38.2599 33.4319 38.0698 34.0779C37.8723 34.7163 37.5326 35.2698 37.0508 35.7382ZM35.7235 34.3732C36.0676 34.0385 36.1864 33.6404 36.0797 33.1788C35.9656 32.7095 35.6706 32.2301 35.1947 31.7407C34.7113 31.2436 34.2404 30.9353 33.782 30.8157C33.3235 30.6961 32.9222 30.8037 32.5781 31.1383C32.2263 31.4803 32.1037 31.8822 32.2104 32.3438C32.3247 32.798 32.6236 33.2736 33.1069 33.7707C33.5828 34.2602 34.0499 34.5722 34.5081 34.7069C34.9666 34.8265 35.3717 34.7152 35.7235 34.3732Z" fill="#FFFFFF" fill-opacity="1.000000" fill-rule="evenodd"/>
        <path id="r" d="M44.7613 28.9549L40.3451 22.3611L41.9404 21.2927L42.8479 22.3602L42.9011 22.3246C42.8436 21.7212 42.912 21.2004 43.1063 20.7621C43.2947 20.315 43.5573 19.9787 43.8941 19.7531C44.0802 19.6285 44.2442 19.5379 44.3861 19.4814C44.522 19.416 44.6492 19.3758 44.7675 19.3608L45.5792 21.2628C45.4402 21.3045 45.3072 21.355 45.1801 21.4145C45.0619 21.468 44.9319 21.5422 44.7901 21.6372C44.5419 21.8034 44.3428 22.0716 44.1927 22.4417C44.0456 22.797 44.0317 23.2556 44.1513 23.8174L46.7155 27.6461L44.7613 28.9549Z" fill="#FFFFFF" fill-opacity="1.000000" fill-rule="evenodd"/>
        <path id="k" d="M54.7583 22.8894L50.2989 12.598L52.3982 11.6883L54.9556 17.5901L55.0143 17.5646L56.066 13.6737L58.4149 12.6559L57.1582 16.7577L61.7611 19.8549L59.4269 20.8664L56.5548 18.7455L56.0816 20.1886L56.8577 21.9797L54.7583 22.8894Z" fill="#FFFFFF" fill-opacity="1.000000" fill-rule="evenodd"/>
        <path id="o" d="M70.9158 17.5319C70.2591 17.6744 69.6049 17.6526 68.9533 17.4666C68.3098 17.2679 67.7453 16.9047 67.2597 16.377C66.7718 15.8389 66.4351 15.1425 66.2496 14.2877C66.0618 13.4225 66.0795 12.6492 66.3027 11.9677C66.5259 11.2862 66.8902 10.7268 67.3957 10.2897C67.9093 9.83986 68.4944 9.54368 69.1512 9.40115C69.8079 9.25863 70.458 9.28672 71.1014 9.48544C71.7426 9.67373 72.306 10.0317 72.7916 10.5594C73.2773 11.0871 73.614 11.7835 73.8017 12.6487C73.9873 13.5034 73.9695 14.2768 73.7486 14.9687C73.5254 15.6502 73.1622 16.2148 72.659 16.6624C72.1536 17.0995 71.5725 17.3893 70.9158 17.5319ZM70.512 15.6712C70.981 15.5694 71.2925 15.2944 71.4463 14.8463C71.5978 14.3877 71.6011 13.8248 71.4563 13.1577C71.3093 12.4801 71.0729 11.9693 70.7472 11.6252C70.4215 11.2812 70.0241 11.16 69.555 11.2618C69.0755 11.3659 68.7588 11.642 68.6051 12.0902C68.4617 12.536 68.4635 13.0978 68.6106 13.7753C68.7554 14.4425 68.9866 14.9544 69.3041 15.3112C69.6298 15.6552 70.0324 15.7753 70.512 15.6712Z" fill="#FFFFFF" fill-opacity="1.000000" fill-rule="evenodd"/>
        <path id="f" d="M81.4599 15.8556L81.2195 9.76432L80.1643 9.80596L80.0956 8.06332L81.1476 7.94174L81.1305 7.51007C81.1082 6.94518 81.184 6.42979 81.3577 5.96391C81.5315 5.49803 81.8261 5.11812 82.2415 4.82417C82.6569 4.53023 83.2216 4.36916 83.9357 4.34098C84.2662 4.32794 84.5712 4.34792 84.8508 4.40094C85.1305 4.45395 85.3568 4.50906 85.5299 4.56628L85.1664 6.30998C85.0257 6.26215 84.8857 6.23032 84.7463 6.21447C84.6064 6.18796 84.4726 6.17724 84.3447 6.18228C84.0569 6.19364 83.8366 6.29307 83.6839 6.48057C83.5308 6.65742 83.4622 6.94835 83.4782 7.35337L83.4971 7.83299L84.92 7.77683L84.9926 9.6154L83.5697 9.67156L83.8101 15.7628L81.4599 15.8556Z" fill="#FFFFFF" fill-opacity="1.000000" fill-rule="evenodd"/>
        <path id="t" d="M94.7953 16.5132C93.8211 16.3948 93.1563 16.0293 92.8009 15.4167C92.4561 14.8053 92.3391 14.0443 92.4497 13.1337L92.8375 9.94113L91.7574 9.80993L91.9677 8.07866L93.1864 8.12999L93.7111 6.0662L95.6489 6.30158L95.3942 8.39817L97.2843 8.62777L97.0624 10.4543L95.1723 10.2247L94.7884 13.3855C94.7343 13.8302 94.7851 14.1641 94.9407 14.3872C95.1081 14.6009 95.3454 14.7265 95.6525 14.7638C95.7795 14.7792 95.9085 14.7788 96.0395 14.7624C96.181 14.7474 96.3072 14.7251 96.4183 14.6956L96.5771 16.4395C96.3682 16.4786 96.1117 16.5119 95.8075 16.5394C95.5139 16.5682 95.1765 16.5595 94.7953 16.5132Z" fill="#FFFFFF" fill-opacity="1.000000" fill-rule="evenodd"/>
        <path id="h" d="M103.314 17.8542L106.726 7.1697L108.967 7.88515L108.129 10.5067L107.59 11.8292C107.955 11.666 108.36 11.5378 108.804 11.4444C109.262 11.3442 109.745 11.3752 110.253 11.5374C111.076 11.8002 111.582 12.2644 111.773 12.9299C111.977 13.5885 111.928 14.3903 111.626 15.3353L110.127 20.0298L107.887 19.3143L109.293 14.9094C109.469 14.3607 109.512 13.9604 109.425 13.7085C109.348 13.4599 109.146 13.2836 108.821 13.1798C108.537 13.089 108.272 13.0771 108.026 13.1443C107.784 13.2014 107.504 13.3078 107.185 13.4636L105.555 18.5696L103.314 17.8542Z" fill="#FFFFFF" fill-opacity="1.000000" fill-rule="evenodd"/>
        <path id="e" d="M120.035 24.9075C119.375 24.537 118.86 24.0588 118.492 23.4729C118.123 22.8871 117.937 22.2382 117.933 21.5265C117.928 20.8147 118.14 20.0774 118.568 19.3145C118.991 18.561 119.507 18.0006 120.117 17.6332C120.736 17.2711 121.377 17.0868 122.041 17.0802C122.711 17.0643 123.32 17.2103 123.869 17.5182C124.529 17.8888 124.99 18.3429 125.251 18.8807C125.526 19.4143 125.63 19.9924 125.562 20.6148C125.509 21.2331 125.305 21.8585 124.95 22.4911C124.851 22.6678 124.742 22.8394 124.624 23.0057C124.512 23.1627 124.423 23.2779 124.357 23.3511L120.213 21.0262C120.024 21.5807 120.025 22.0703 120.215 22.4948C120.41 22.91 120.735 23.2455 121.191 23.5012C121.684 23.7778 122.268 23.9035 122.942 23.8783L122.929 25.5038C122.44 25.5474 121.938 25.5163 121.422 25.4106C120.907 25.3048 120.444 25.1371 120.035 24.9075ZM120.958 19.6648L123.456 21.066C123.67 20.6846 123.752 20.3208 123.701 19.9745C123.666 19.6242 123.443 19.3342 123.034 19.1046C122.717 18.9272 122.371 18.8796 121.995 18.962C121.623 19.035 121.278 19.2693 120.958 19.6648Z" fill="#FFFFFF" fill-opacity="1.000000" fill-rule="evenodd"/>
        <path id="w" d="M129.646 31.0204L133.491 23.8002L135.225 25.3654L133.329 28.6117C133.112 28.9476 132.895 29.2759 132.677 29.5966C132.459 29.9174 132.238 30.2497 132.014 30.5935L132.062 30.6363C132.389 30.3855 132.708 30.135 133.02 29.885C133.34 29.642 133.661 29.4142 133.982 29.2014L137.101 27.0594L138.61 28.421L136.809 31.753C136.616 32.1103 136.418 32.4565 136.216 32.7916C136.022 33.1338 135.817 33.4803 135.601 33.8312L135.649 33.8741C135.976 33.6233 136.284 33.3696 136.573 33.1132C136.869 32.8639 137.178 32.6178 137.498 32.3748L140.522 30.1471L142.137 31.6052L135.406 36.2202L133.363 34.3762L134.952 31.5421C135.146 31.215 135.341 30.8878 135.536 30.5607C135.738 30.2406 135.955 29.8973 136.185 29.5305L136.138 29.4876C135.797 29.7543 135.477 30.0048 135.179 30.239C134.89 30.4804 134.592 30.7146 134.286 30.9417L131.641 32.8216L129.646 31.0204Z" fill="#FFFFFF" fill-opacity="1.000000" fill-rule="evenodd"/>
        <path id="e" d="M142.947 45.6455C142.511 45.0262 142.254 44.3729 142.174 43.6853C142.094 42.9978 142.206 42.3321 142.509 41.6881C142.813 41.0442 143.322 40.4704 144.037 39.9669C144.744 39.4695 145.451 39.1867 146.16 39.1183C146.874 39.0587 147.533 39.1692 148.134 39.4499C148.745 39.7244 149.232 40.1189 149.594 40.6335C150.03 41.2527 150.25 41.8612 150.253 42.4589C150.271 43.0592 150.115 43.6255 149.786 44.1576C149.471 44.6924 149.017 45.1686 148.424 45.5861C148.258 45.7028 148.086 45.8108 147.908 45.91C147.739 46.0031 147.609 46.0685 147.518 46.1063L144.782 42.2207C144.373 42.6395 144.162 43.0814 144.15 43.5463C144.147 44.0051 144.296 44.4482 144.597 44.8755C144.922 45.3378 145.395 45.7031 146.014 45.9715L145.301 47.4323C144.841 47.2605 144.401 47.0157 143.982 46.6979C143.562 46.3801 143.218 46.0293 142.947 45.6455ZM146.042 41.3142L147.691 43.656C148.049 43.4043 148.279 43.1113 148.383 42.7773C148.502 42.4457 148.426 42.0881 148.156 41.7043C147.948 41.4078 147.656 41.2155 147.28 41.1273C146.914 41.0331 146.501 41.0954 146.042 41.3142Z" fill="#FFFFFF" fill-opacity="1.000000" fill-rule="evenodd"/>
        <path id="e" d="M149.646 57.4946C149.338 56.8025 149.212 56.1116 149.267 55.4217C149.323 54.7318 149.561 54.1004 149.984 53.5274C150.406 52.9545 151.017 52.4904 151.816 52.1352C152.606 51.7842 153.355 51.644 154.063 51.7143C154.776 51.7945 155.4 52.0306 155.936 52.4226C156.482 52.8103 156.883 53.2917 157.138 53.8668C157.446 54.5589 157.543 55.1984 157.431 55.7854C157.332 56.3778 157.07 56.9031 156.643 57.3612C156.23 57.8248 155.692 58.2039 155.03 58.4985C154.844 58.5808 154.655 58.6533 154.461 58.7162C154.277 58.7747 154.137 58.8136 154.04 58.8331L152.11 54.4907C151.627 54.8222 151.335 55.2148 151.233 55.6686C151.141 56.118 151.201 56.5816 151.413 57.0592C151.643 57.5758 152.036 58.0258 152.591 58.4092L151.608 59.704C151.19 59.4462 150.806 59.1208 150.457 58.7276C150.107 58.3345 149.837 57.9235 149.646 57.4946ZM153.522 53.8458L154.685 56.4629C155.085 56.2853 155.368 56.0427 155.535 55.7351C155.716 55.4329 155.711 55.0674 155.52 54.6385C155.373 54.3071 155.124 54.0618 154.773 53.9026C154.432 53.7391 154.015 53.7201 153.522 53.8458Z" fill="#FFFFFF" fill-opacity="1.000000" fill-rule="evenodd"/>
        <path id="k" d="M153.32 66.9115L164.259 64.4303L164.765 66.6616L158.492 68.0845L158.506 68.1469L162.136 69.8994L162.702 72.3959L158.903 70.403L155.009 74.3544L154.446 71.8734L157.061 69.4427L155.73 68.711L153.827 69.1428L153.32 66.9115Z" fill="#FFFFFF" fill-opacity="1.000000" fill-rule="evenodd"/>
        <path id="A" d="M161.057 82.8851L160.092 82.6492L160.138 84.8728L161.093 84.6127C161.613 84.4632 162.164 84.3076 162.748 84.146C163.331 83.9951 163.894 83.8447 164.435 83.6947L164.433 83.6307C163.876 83.5143 163.303 83.3929 162.713 83.2666C162.135 83.1506 161.583 83.0235 161.057 82.8851ZM155.699 79.2204L166.197 82.2655L166.256 85.0969L155.895 88.5783L155.843 86.0828L158.309 85.3911L158.242 82.2078L155.749 81.6198L155.699 79.2204Z" fill="#FFFFFF" fill-opacity="1.000000" fill-rule="evenodd"/>
        <path id="r" d="M155.253 95.0171L163.078 96.3386L162.758 98.2318L161.359 98.1578L161.349 98.2209C161.826 98.5937 162.158 99.0012 162.343 99.4435C162.538 99.8876 162.602 100.309 162.535 100.709C162.497 100.93 162.451 101.111 162.394 101.253C162.348 101.397 162.29 101.517 162.22 101.613L160.28 100.896C160.345 100.767 160.4 100.635 160.444 100.502C160.486 100.379 160.522 100.234 160.55 100.066C160.6 99.7712 160.542 99.4423 160.376 99.0789C160.219 98.7279 159.895 98.4028 159.405 98.1036L154.861 97.3363L155.253 95.0171Z" fill="#FFFFFF" fill-opacity="1.000000" fill-rule="evenodd"/>
        <path id="t" d="M151.56 109.28C151.882 108.353 152.38 107.781 153.054 107.564C153.725 107.356 154.494 107.403 155.36 107.705L158.398 108.761L158.755 107.733L160.402 108.306L160.094 109.486L161.999 110.436L161.358 112.28L159.363 111.586L158.738 113.385L157 112.781L157.625 110.982L154.618 109.937C154.195 109.79 153.858 109.768 153.607 109.873C153.362 109.991 153.189 110.197 153.088 110.489C153.046 110.61 153.019 110.736 153.007 110.867C152.992 111.009 152.987 111.137 152.992 111.252L151.254 111.037C151.26 110.825 151.282 110.567 151.32 110.264C151.354 109.971 151.434 109.643 151.56 109.28Z" fill="#FFFFFF" fill-opacity="1.000000" fill-rule="evenodd"/>
        <path id="w" d="M147.858 118.477L155.676 120.885L154.468 122.884L150.921 121.637C150.55 121.488 150.187 121.337 149.831 121.184C149.474 121.031 149.106 120.877 148.726 120.722L148.693 120.777C149.001 121.05 149.308 121.316 149.612 121.575C149.912 121.844 150.196 122.115 150.466 122.39L153.16 125.047L152.109 126.786L148.496 125.649C148.109 125.527 147.731 125.399 147.364 125.264C146.991 125.139 146.612 125.003 146.227 124.857L146.193 124.912C146.502 125.185 146.809 125.44 147.116 125.675C147.417 125.919 147.717 126.175 148.016 126.443L150.776 128.991L149.65 130.853L143.844 125.118L145.268 122.763L148.351 123.786C148.709 123.915 149.067 124.044 149.426 124.173C149.778 124.312 150.156 124.459 150.56 124.616L150.593 124.561C150.267 124.277 149.96 124.011 149.674 123.763C149.382 123.524 149.096 123.276 148.815 123.019L146.468 120.778L147.858 118.477Z" fill="#FFFFFF" fill-opacity="1.000000" fill-rule="evenodd"/>
        <path id="o" d="M136.118 134.205C136.584 133.721 137.14 133.375 137.785 133.166C138.43 132.973 139.101 132.961 139.798 133.129C140.503 133.304 141.17 133.696 141.8 134.302C142.438 134.917 142.854 135.569 143.047 136.26C143.241 136.95 143.25 137.617 143.073 138.262C142.897 138.921 142.576 139.493 142.11 139.977C141.643 140.461 141.088 140.8 140.442 140.993C139.805 141.193 139.138 141.209 138.44 141.041C137.743 140.873 137.076 140.482 136.438 139.868C135.809 139.261 135.393 138.609 135.191 137.911C134.997 137.22 134.985 136.549 135.154 135.897C135.33 135.253 135.652 134.689 136.118 134.205ZM137.489 135.526C137.156 135.871 137.05 136.273 137.172 136.731C137.301 137.196 137.612 137.666 138.104 138.139C138.603 138.62 139.084 138.913 139.546 139.018C140.008 139.122 140.405 139.002 140.738 138.656C141.079 138.303 141.188 137.897 141.067 137.439C140.937 136.989 140.623 136.523 140.124 136.042C139.632 135.569 139.155 135.272 138.693 135.152C138.231 135.048 137.83 135.172 137.489 135.526Z" fill="#FFFFFF" fill-opacity="1.000000" fill-rule="evenodd"/>
        <path id="r" d="M128.633 141.236L133.262 147.682L131.702 148.802L130.76 147.765L130.708 147.802C130.786 148.403 130.734 148.926 130.554 149.371C130.381 149.824 130.129 150.168 129.8 150.405C129.618 150.535 129.457 150.631 129.317 150.692C129.183 150.762 129.058 150.806 128.94 150.825L128.066 148.951C128.204 148.905 128.335 148.85 128.46 148.786C128.577 148.729 128.704 148.65 128.843 148.551C129.086 148.377 129.276 148.102 129.414 147.727C129.549 147.367 129.548 146.909 129.41 146.351L126.722 142.608L128.633 141.236Z" fill="#FFFFFF" fill-opacity="1.000000" fill-rule="evenodd"/>
        <path id="k" d="M118.839 147.624L123.632 157.765L121.563 158.743L118.815 152.927L118.757 152.955L117.833 156.878L115.518 157.972L116.641 153.831L111.939 150.886L114.239 149.799L117.179 151.825L117.605 150.367L116.771 148.602L118.839 147.624Z" fill="#FFFFFF" fill-opacity="1.000000" fill-rule="evenodd"/>
        <path id="o" d="M102.865 153.507C103.517 153.343 104.171 153.343 104.829 153.508C105.478 153.685 106.054 154.03 106.557 154.542C107.062 155.063 107.421 155.749 107.635 156.597C107.851 157.455 107.858 158.229 107.657 158.917C107.457 159.606 107.111 160.177 106.62 160.63C106.121 161.096 105.546 161.412 104.894 161.575C104.242 161.739 103.592 161.732 102.942 161.555C102.295 161.388 101.72 161.048 101.218 160.537C100.715 160.025 100.356 159.34 100.14 158.481C99.9268 157.633 99.9193 156.86 100.117 156.161C100.318 155.472 100.663 154.896 101.151 154.433C101.642 153.979 102.213 153.671 102.865 153.507ZM103.329 155.353C102.864 155.47 102.562 155.755 102.423 156.208C102.286 156.671 102.301 157.234 102.468 157.896C102.637 158.569 102.89 159.071 103.226 159.405C103.563 159.738 103.964 159.846 104.43 159.729C104.906 159.609 105.213 159.323 105.352 158.87C105.481 158.42 105.461 157.858 105.292 157.186C105.125 156.524 104.877 156.02 104.548 155.674C104.212 155.34 103.805 155.234 103.329 155.353Z" fill="#FFFFFF" fill-opacity="1.000000" fill-rule="evenodd"/>
        <path id="f" d="M92.3813 155.526L92.8204 161.606L93.8736 161.53L93.9992 163.269L92.9517 163.425L92.9828 163.856C93.0236 164.42 92.9647 164.938 92.8062 165.409C92.6477 165.88 92.3657 166.269 91.9601 166.577C91.5546 166.884 90.9954 167.064 90.2825 167.115C89.9527 167.139 89.6472 167.129 89.366 167.085C89.0848 167.041 88.8567 166.993 88.6819 166.942L88.9883 165.187C89.1305 165.23 89.2715 165.258 89.4113 165.269C89.5519 165.291 89.6861 165.297 89.8137 165.288C90.101 165.267 90.3179 165.161 90.4644 164.968C90.6117 164.787 90.6707 164.494 90.6416 164.089L90.607 163.611L89.1867 163.713L89.0542 161.878L90.4745 161.775L90.0354 155.695L92.3813 155.526Z" fill="#FFFFFF" fill-opacity="1.000000" fill-rule="evenodd"/>
        <path id="t" d="M79.0316 155.304C80.0092 155.39 80.6855 155.734 81.0607 156.335C81.4252 156.934 81.5671 157.691 81.4863 158.605L81.2028 161.808L82.2866 161.904L82.1329 163.641L80.9132 163.63L80.4561 165.71L78.5117 165.538L78.6978 163.434L76.8012 163.266L76.9634 161.433L78.86 161.601L79.1406 158.429C79.1801 157.983 79.1184 157.651 78.9557 157.433C78.7813 157.225 78.5401 157.107 78.232 157.08C78.1045 157.069 77.9756 157.074 77.8452 157.094C77.7043 157.114 77.5788 157.14 77.4688 157.173L77.2531 155.435C77.4606 155.39 77.716 155.348 78.0191 155.311C78.3116 155.272 78.6491 155.27 79.0316 155.304Z" fill="#FFFFFF" fill-opacity="1.000000" fill-rule="evenodd"/>
        <path id="h" d="M70.4734 154.242L67.4121 165.032L65.1494 164.39L65.9005 161.742L66.3969 160.403C66.0368 160.578 65.6364 160.719 65.1955 160.827C64.7415 160.942 64.258 160.927 63.7449 160.781C62.9137 160.545 62.392 160.098 62.1798 159.439C61.9544 158.788 61.9771 157.985 62.2479 157.03L63.593 152.289L65.8557 152.931L64.5936 157.38C64.4364 157.934 64.4056 158.335 64.5013 158.584C64.5867 158.83 64.7936 159 65.122 159.093C65.4093 159.175 65.6745 159.178 65.9176 159.103C66.1578 159.038 66.4345 158.922 66.7477 158.756L68.2107 153.6L70.4734 154.242Z" fill="#FFFFFF" fill-opacity="1.000000" fill-rule="evenodd"/>
        <path id="e" d="M53.5313 147.738C54.2035 148.086 54.7333 148.547 55.1207 149.121C55.5081 149.694 55.7156 150.337 55.7431 151.048C55.7706 151.759 55.583 152.503 55.1802 153.28C54.7822 154.047 54.2846 154.624 53.6872 155.011C53.0804 155.393 52.4452 155.598 51.7816 155.626C51.1132 155.664 50.4996 155.538 49.941 155.248C49.2687 154.899 48.7935 154.46 48.5151 153.931C48.2224 153.407 48.0998 152.833 48.1473 152.208C48.1804 151.589 48.364 150.957 48.6981 150.313C48.7914 150.133 48.8942 149.958 49.0065 149.788C49.1138 149.627 49.1991 149.509 49.2622 149.434L53.4803 151.623C53.6509 151.062 53.6343 150.573 53.4307 150.155C53.2221 149.746 52.8859 149.421 52.4219 149.181C51.9201 148.92 51.3325 148.814 50.6591 148.861L50.619 147.236C51.1065 147.176 51.6096 147.191 52.1283 147.28C52.647 147.369 53.1147 147.521 53.5313 147.738ZM52.7797 153.008L50.2375 151.689C50.0361 152.077 49.9662 152.443 50.0279 152.787C50.0751 153.136 50.3071 153.419 50.7237 153.635C51.0456 153.802 51.3933 153.838 51.7669 153.744C52.1355 153.659 52.4731 153.413 52.7797 153.008Z" fill="#FFFFFF" fill-opacity="1.000000" fill-rule="evenodd"/>
        <path id="w" d="M43.7263 141.941L40.119 149.283L38.3348 147.775L40.1237 144.469C40.3295 144.126 40.536 143.791 40.7432 143.463C40.9503 143.136 41.1603 142.796 41.373 142.445L41.3241 142.404C41.0055 142.666 40.6943 142.926 40.3907 143.186C40.0789 143.44 39.7659 143.678 39.4515 143.901L36.404 146.144L34.852 144.832L36.5431 141.443C36.7246 141.08 36.9107 140.727 37.1015 140.386C37.2842 140.037 37.4779 139.684 37.6825 139.326L37.6336 139.285C37.3149 139.547 37.0154 139.81 36.7349 140.076C36.4463 140.335 36.1461 140.591 35.8344 140.844L32.8846 143.169L31.2226 141.765L37.7995 136.932L39.9014 138.709L38.4063 141.593C38.2224 141.926 38.0384 142.26 37.8545 142.593C37.6624 142.92 37.4571 143.27 37.2387 143.644L37.2876 143.685C37.6201 143.408 37.9312 143.147 38.2211 142.903C38.5028 142.652 38.7927 142.408 39.0907 142.172L41.6733 140.206L43.7263 141.941Z" fill="#FFFFFF" fill-opacity="1.000000" fill-rule="evenodd"/>
        <path id="e" d="M29.9545 127.758C30.4105 128.363 30.6894 129.008 30.7915 129.692C30.8935 130.377 30.8035 131.046 30.5214 131.699C30.2393 132.353 29.7491 132.943 29.0507 133.469C28.3609 133.99 27.663 134.295 26.9571 134.387C26.2447 134.47 25.5832 134.381 24.9724 134.12C24.3531 133.865 23.854 133.487 23.4751 132.985C23.0191 132.38 22.7797 131.779 22.7568 131.182C22.719 130.582 22.8563 130.011 23.1685 129.469C23.4657 128.924 23.9039 128.433 24.4831 127.996C24.6449 127.874 24.8132 127.761 24.9878 127.656C25.154 127.557 25.2818 127.488 25.3713 127.447L28.2322 131.241C28.6279 130.809 28.8241 130.361 28.8208 129.896C28.8089 129.437 28.6457 128.999 28.331 128.582C27.9907 128.13 27.5066 127.781 26.8787 127.533L27.5437 126.049C28.0092 126.206 28.4567 126.436 28.8863 126.74C29.3159 127.044 29.6719 127.384 29.9545 127.758ZM27.0026 132.188L25.2784 129.902C24.9292 130.165 24.7081 130.465 24.6151 130.802C24.5071 131.138 24.5945 131.493 24.877 131.867C25.0954 132.157 25.3934 132.34 25.7712 132.415C26.1405 132.498 26.551 132.422 27.0026 132.188Z" fill="#FFFFFF" fill-opacity="1.000000" fill-rule="evenodd"/>
        <path id="e" d="M22.873 116.134C23.203 116.816 23.3517 117.502 23.319 118.194C23.2863 118.885 23.0683 119.524 22.6648 120.11C22.2613 120.697 21.666 121.18 20.8787 121.561C20.1011 121.938 19.3571 122.103 18.6469 122.055C17.932 121.999 17.3003 121.783 16.7517 121.409C16.1935 121.039 15.7772 120.571 15.503 120.004C15.173 119.323 15.0547 118.687 15.1481 118.096C15.2272 117.501 15.4726 116.967 15.8841 116.496C16.2814 116.019 16.8065 115.622 17.4593 115.306C17.6417 115.218 17.8288 115.139 18.0205 115.07C18.2026 115.006 18.3415 114.962 18.4372 114.94L20.5079 119.217C20.9799 118.87 21.2593 118.468 21.3463 118.011C21.4236 117.559 21.3484 117.097 21.1206 116.627C20.8743 116.118 20.4672 115.681 19.8994 115.316L20.8394 113.99C21.2657 114.234 21.66 114.547 22.0225 114.928C22.385 115.31 22.6685 115.712 22.873 116.134ZM19.118 119.907L17.87 117.33C17.4764 117.52 17.2012 117.772 17.0446 118.085C16.8737 118.393 16.8905 118.758 17.095 119.18C17.253 119.507 17.51 119.744 17.8659 119.891C18.2122 120.044 18.6296 120.049 19.118 119.907Z" fill="#FFFFFF" fill-opacity="1.000000" fill-rule="evenodd"/>
        <path id="k" d="M18.8931 106.842L8.04177 109.679L7.46308 107.465L13.686 105.838L13.6698 105.777L9.98491 104.143L9.33743 101.667L13.1994 103.535L16.9628 99.4583L17.6062 101.92L15.0719 104.434L16.4259 105.122L18.3144 104.629L18.8931 106.842Z" fill="#FFFFFF" fill-opacity="1.000000" fill-rule="evenodd"/>
        <path id=" " d="" fill="#FFFFFF" fill-opacity="1.000000" fill-rule="evenodd"/>
        <path id=" " d="" fill="#FFFFFF" fill-opacity="1.000000" fill-rule="evenodd"/>
    </g>

    <g id="priceSvg">
        <path id="Vector" d="M11.7 7C11.9 6.8999 12.1 6.8999 12.4 7L17.2 9.1001C17.6 9.30005 18.0001 8.80005 17.7 8.3999L12.7 2.30005C12.4 1.8999 11.8 1.8999 11.5001 2.30005L6.50006 8.3999C6.10004 8.80005 6.50006 9.30005 6.90002 9.1001L11.7 7Z" stroke="#FFFFFF" stroke-opacity="1.000000" stroke-width="1.500000" stroke-linejoin="round"/>
        <path id="Vector" d="M11.7 17C11.9 17.1001 12.1 17.1001 12.4 17L17.2 14.9001C17.6 14.7 18.0001 15.2 17.7 15.6001L12.7 21.7C12.4 22.1001 11.8 22.1001 11.5001 21.7L6.50006 15.6001C6.10004 15.2 6.50006 14.7 6.90002 14.9001L11.7 17Z" stroke="#FFFFFF" stroke-opacity="1.000000" stroke-width="1.500000" stroke-linejoin="round"/>
        <path id="Vector" d="M6.79999 12L12 14.5999L17.2 12L12 9.3999L6.79999 12Z" stroke="#FFFFFF" stroke-opacity="1.000000" stroke-width="1.500000" stroke-linejoin="round"/>
        <g opacity="0.000000">
            <path id="Vector" d="M24 0L24 24L0 24L0 0L24 0Z" stroke="#FFFFFF" stroke-opacity="1.000000" stroke-width="1.000000"/>
        </g>
    </g>

    <g id="clock">
        <path id="Vector" d="M12 22C6.47998 22 2 17.52 2 12C2 6.47998 6.47998 2 12 2C17.52 2 22 6.47998 22 12C22 17.52 17.52 22 12 22Z" stroke="#FFFFFF" stroke-opacity="1.000000" stroke-width="1.500000" stroke-linejoin="round"/>
        <path id="Vector" d="M15.71 15.1799L12.61 13.3301C12.07 13.01 11.63 12.24 11.63 11.6101L11.63 7.51001" stroke="#FFFFFF" stroke-opacity="1.000000" stroke-width="1.500000" stroke-linejoin="round" stroke-linecap="round"/>
        <g opacity="0.000000"/>
    </g>
</svg>
